<?xml version="1.0" encoding="UTF-8"?>
<svg width="9px" height="9px" viewBox="0 0 9 9" version="1.1" xmlns="http://www.w3.org/2000/svg" xmlns:xlink="http://www.w3.org/1999/xlink">
    <!-- Generator: Sketch 43.2 (39069) - http://www.bohemiancoding.com/sketch -->
    <title>Shape</title>
    <desc>Created with Sketch.</desc>
    <defs></defs>
    <g id="Page-1" stroke="none" stroke-width="1" fill="none" fill-rule="evenodd">
        <g id="ScheduleEdit@2x" transform="translate(-273.000000, -91.000000)" fill="#808485">
            <path d="M282.44628,94.8312803 L278.222595,94.8312803 L278.222595,90.6079435 C278.222595,90.2239405 277.911289,89.9122859 277.526938,89.9122859 C277.142587,89.9122859 276.83128,90.2239405 276.83128,90.6079435 L276.83128,94.8316282 L272.607943,94.8316282 C272.223593,94.8316282 271.912286,95.1432827 271.912286,95.5272857 C271.912286,95.9112887 272.223593,96.2229432 272.607943,96.2229432 L276.831628,96.2229432 L276.831628,100.446628 C276.831628,100.830631 277.142935,101.142285 277.527286,101.142285 C277.911636,101.142285 278.222943,100.830631 278.222943,100.446628 L278.222943,96.2225954 L282.446628,96.2225954 C282.830979,96.2225954 283.142285,95.9109408 283.142285,95.5269379 C283.142285,95.1429349 282.830631,94.8312803 282.44628,94.8312803 L282.44628,94.8312803 Z" id="Shape" transform="translate(277.527286, 95.527286) rotate(45.000000) translate(-277.527286, -95.527286) "></path>
        </g>
    </g>
</svg>