<?xml version="1.0" encoding="UTF-8"?>
<svg width="5px" height="21px" viewBox="0 0 5 21" version="1.1" xmlns="http://www.w3.org/2000/svg" xmlns:xlink="http://www.w3.org/1999/xlink">
    <!-- Generator: Sketch 46.2 (44496) - http://www.bohemiancoding.com/sketch -->
    <title>more-button-of-three-dots</title>
    <desc>Created with Sketch.</desc>
    <defs></defs>
    <g id="Designs" stroke="none" stroke-width="1" fill="none" fill-rule="evenodd">
        <g id="ManageRoles-v5@2x" transform="translate(-1215.000000, -434.000000)" stroke="#87B7B6" stroke-width="2" fill="#87B7B6" fill-rule="nonzero">
            <g id="more-button-of-three-dots" transform="translate(1217.500000, 444.500000) rotate(90.000000) translate(-1217.500000, -444.500000) translate(1208.000000, 443.000000)">
                <path d="M1.72726144,0.00975 C0.773256536,0.00975 0,0.676875 0,1.5 C0,2.323125 0.773256536,2.99025 1.72726144,2.99025 C2.68126634,2.99025 3.45455392,2.323125 3.45455392,1.5 C3.45455392,0.676875 2.68129739,0.00975 1.72726144,0.00975 Z M9.78788725,0.00975 C8.83385131,0.00975 8.06062582,0.676901786 8.06062582,1.5 C8.06062582,2.32309821 8.83388235,2.99025 9.78788725,2.99025 C10.7418922,2.99025 11.5151487,2.32315179 11.5151487,1.5 C11.5151487,0.676875 10.7419232,0.00975 9.78788725,0.00975 Z M17.2727386,0.00975 C16.3187026,0.00975 15.5454771,0.676901786 15.5454771,1.5 C15.5454771,2.32309821 16.3187026,2.99025 17.2727386,2.99025 C18.2267435,2.99025 19,2.323125 19,1.5 C19,0.676875 18.2267435,0.00975 17.2727386,0.00975 Z" id="Shape"></path>
            </g>
        </g>
    </g>
</svg>